ply
format ascii 1.0
comment VCGLIB generated
element vertex 746
property float x
property float y
property float z
element face 1472
property list uchar int vertex_indices
end_header
10.57196 0.5 86.09863 
10.57196 0 86.09863 
10.79067 0 85.67757 
10.79067 0.5 85.67757 
10.93375 0 85.2252 
10.93375 0.5 85.2252 
7.65 0.5 95.13272 
7.65 0 95.13272 
7.000645 0 95.28758 
7.000645 0.5 95.28758 
6.386088 0 95.54829 
6.386088 0.5 95.54829 
5.823446 0 95.90755 
5.823446 0.5 95.90755 
5.328391 0 96.3554 
5.328391 0.5 96.3554 
4.91471 0 96.87934 
4.91471 0.5 96.87934 
4.593925 0 97.46478 
4.593925 0.5 97.46478 
4.374973 0 98.09541 
4.374973 0.5 98.09541 
4.26395 0 98.75368 
4.26395 0.5 98.75368 
4.26395 0 99.42126 
4.26395 0.5 99.42126 
4.374973 0 100.0795 
4.374973 0.5 100.0795 
4.593925 0 100.7102 
4.593925 0.5 100.7102 
4.91471 0 101.2956 
4.91471 0.5 101.2956 
5.328391 0 101.8195 
5.328391 0.5 101.8195 
5.823446 0 102.2674 
5.823446 0.5 102.2674 
6.386088 0 102.6266 
6.386088 0.5 102.6266 
7.000645 0 102.8874 
7.000645 0.5 102.8874 
7.65 0 103.0422 
7.65 0.5 103.0422 
8.849999 0.5 103.0422 
8.849999 0 103.0422 
9.499355 0 102.8874 
9.499355 0.5 102.8874 
10.11391 0 102.6266 
10.11391 0.5 102.6266 
10.67655 0 102.2674 
10.67655 0.5 102.2674 
11.17161 0 101.8195 
11.17161 0.5 101.8195 
11.58529 0 101.2956 
11.58529 0.5 101.2956 
11.90607 0 100.7102 
11.90607 0.5 100.7102 
12.12503 0 100.0795 
12.12503 0.5 100.0795 
12.23605 0 99.42126 
12.23605 0.5 99.42126 
12.23605 0 98.75368 
12.23605 0.5 98.75368 
12.12503 0 98.09541 
12.12503 0.5 98.09541 
11.90607 0 97.46478 
11.90607 0.5 97.46478 
11.58529 0 96.87934 
11.58529 0.5 96.87934 
11.17161 0 96.3554 
11.17161 0.5 96.3554 
10.67655 0 95.90755 
10.67655 0.5 95.90755 
10.11391 0 95.54829 
10.11391 0.5 95.54829 
9.499355 0 95.28758 
9.499355 0.5 95.28758 
8.849999 0 95.13272 
8.849999 0.5 95.13272 
9.382729 1.6 101.5933 
9.485703 1.6 101.8212 
9.78993 1.6 101.3659 
9.929924 1.6 101.573 
10.15283 1.6 101.0728 
10.32582 1.6 101.2533 
10.46099 1.6 100.7227 
10.66199 1.6 100.8714 
10.70555 1.6 100.3255 
10.92878 1.6 100.4381 
10.87946 1.6 99.89274 
11.1185 1.6 99.96593 
10.97773 1.6 99.43677 
11.2257 1.6 99.46852 
10.99752 1.6 98.97076 
11.2473 1.6 98.96014 
10.93828 1.6 98.5081 
11.18267 1.6 98.45543 
10.80169 1.6 98.06211 
11.03367 1.6 97.96889 
10.59171 1.6 97.64562 
10.80459 1.6 97.51455 
10.31435 1.6 97.27061 
10.50202 1.6 97.10545 
9.977605 1.6 96.94787 
10.13466 1.6 96.75336 
9.591162 1.6 96.68668 
9.713084 1.6 96.46843 
9.166135 1.6 96.49455 
9.249419 1.6 96.25883 
8.714752 1.6 96.37702 
8.757003 1.6 96.13062 
8.25 1.6 96.33747 
8.25 1.6 96.08747 
7.785248 1.6 96.37702 
7.742997 1.6 96.13062 
7.333865 1.6 96.49455 
7.25058 1.6 96.25883 
6.908839 1.6 96.68668 
6.786915 1.6 96.46843 
6.522395 1.6 96.94787 
6.36534 1.6 96.75336 
6.185651 1.6 97.27061 
5.997983 1.6 97.10545 
5.908295 1.6 97.64562 
5.695413 1.6 97.51455 
5.698305 1.6 98.06211 
5.466332 1.6 97.96889 
5.561723 1.6 98.5081 
5.317334 1.6 98.45543 
5.502478 1.6 98.97076 
5.252703 1.6 98.96014 
5.522274 1.6 99.43677 
5.274299 1.6 99.46852 
5.620542 1.6 99.89274 
5.381499 1.6 99.96593 
5.794454 1.6 100.3255 
5.571222 1.6 100.4381 
6.039008 1.6 100.7227 
5.838008 1.6 100.8714 
6.347168 1.6 101.0728 
6.174183 1.6 101.2533 
6.710069 1.6 101.3659 
6.570076 1.6 101.573 
7.117271 1.6 101.5933 
7.014296 1.6 101.8212 
7.55706 1.6 101.7487 
7.494066 1.6 101.9907 
8.016784 1.6 101.8276 
7.995582 1.6 102.0767 
8.25 1.6 101.8375 
8.25 1.6 102.0875 
8.483216 1.6 101.8276 
8.504417 1.6 102.0767 
8.94294 1.6 101.7487 
9.005934 1.6 101.9907 
8.849999 0 87.30894 
8.25 0 96.33747 
7.65 0 113.7961 
8.849999 0 113.7961 
8.05404 0 115.7755 
8.445959 0 115.7755 
8.436281 0 115.8083 
8.714752 0 96.37702 
8.849999 0 128.9985 
4.837064 0 126.882 
5.91869 0 127.3707 
8.421159 0 115.839 
8.401032 0 115.8666 
8.376492 0 115.8904 
8.348252 0 115.9097 
8.317142 0 115.9239 
8.284069 0 115.9326 
8.25 0 115.9355 
8.215931 0 115.9326 
8.182858 0 115.9239 
8.098968 0 115.8666 
8.123508 0 115.8904 
8.151748 0 115.9097 
8.078841 0 115.839 
8.063719 0 115.8083 
8.605113 0 142.7749 
8.554777 0 142.8296 
7.8 0 142.4985 
11.13848 0 114.3941 
10.01968 0 113.9978 
8.849999 0 112.5422 
7.65 0 112.5422 
8.483216 0 101.8276 
8.94294 0 101.7487 
5.92804 0 86.09863 
7.65 0 87.30894 
7.19762 0 87.16586 
10.79067 0 83.57281 
10.93375 0 84.0252 
8.25 0 101.8375 
8.496126 0 142.8752 
8.430763 0 142.9106 
8.360469 0 142.9348 
8.287161 0 142.947 
8.212839 0 142.947 
8.139531 0 142.9348 
10.57196 0 83.15176 
9.723433 0 82.30323 
8.383111 0 80.16988 
8.849999 0 81.94144 
8.317456 0 80.15344 
8.25 0 80.1479 
9.30238 0 87.16586 
9.30238 0 82.08452 
9.723433 0 86.94716 
5.457676 0 87.90454 
5.390417 0 87.91232 
5.018271 0 87.29124 
7.65 0 81.94144 
5.566252 0 84.0252 
5.709332 0 83.57281 
5.92804 0 83.15176 
7.19762 0 82.08452 
8.693863 0 142.5726 
8.675618 0 142.6446 
8.645763 0 142.7127 
8.069237 0 142.9106 
8.003874 0 142.8752 
7.945223 0 142.8296 
7.894886 0 142.7749 
7.854236 0 142.7127 
7.806137 0 142.5726 
7.824382 0 142.6446 
6.295072 0 128.7854 
7.65 0 128.9985 
8.7 0 142.4985 
10.97723 0 81.36447 
11.04232 0 81.34585 
11.48173 0 81.95915 
11.10958 0 81.33808 
10.91604 0 81.39346 
11.48173 0 87.29124 
11.51067 0 87.35242 
11.41592 0 87.79111 
11.30625 0 87.8697 
11.24331 0 87.89458 
11.17715 0 87.90887 
8.552244 0 80.27893 
8.59432 0 80.33195 
8.627198 0 80.39111 
8.650001 0 80.45484 
9.78993 0 101.3659 
9.166135 0 96.49455 
9.591162 0 96.68668 
9.977605 0 96.94787 
10.31435 0 97.27061 
10.59171 0 97.64562 
10.80169 0 98.06211 
10.93828 0 98.5081 
10.99752 0 98.97076 
10.97773 0 99.43677 
10.87946 0 99.89274 
10.70555 0 100.3255 
10.46099 0 100.7227 
10.15283 0 101.0728 
6.776568 0 86.94716 
5.583957 0 87.85693 
5.52277 0 87.88591 
5.135554 0 87.83508 
5.083924 0 87.79128 
4.989283 0 87.35242 
5.709332 0 85.67757 
5.566252 0 85.2252 
4.079646 0 85.02519 
4.079646 0 84.22519 
4.015904 0 85.00241 
4.015904 0 84.24799 
5.457691 0 81.34595 
5.522772 0 81.36452 
5.018271 0 81.95915 
5.583957 0 81.39346 
6.776568 0 82.30323 
7.067344 0 127.6697 
8.25 0 127.7704 
10.20493 0 128.7854 
9.432656 0 127.6697 
11.50582 0 128.3508 
10.58131 0 127.3707 
12.71672 0 127.7066 
11.66294 0 126.882 
13.80417 0 126.8707 
12.64644 0 126.2175 
14.73809 0 125.8662 
13.50353 0 125.3964 
15.49269 0 124.7208 
14.20959 0 124.4423 
16.04709 0 123.4663 
14.7443 0 123.3827 
16.38598 0 122.1372 
15.09229 0 122.2479 
16.5 0 120.7704 
15.24356 0 121.0706 
16.38598 0 119.4035 
15.19375 0 119.8848 
16.04709 0 118.0745 
14.94431 0 118.7243 
15.49269 0 116.8199 
14.50239 0 117.6227 
14.73809 0 115.6746 
13.88072 0 116.6116 
13.80417 0 114.6701 
13.09715 0 115.7201 
12.71672 0 113.8342 
12.17423 0 114.9738 
11.50582 0 113.19 
11.17721 0 81.34137 
11.24339 0 81.35564 
11.30637 0 81.38052 
11.36431 0 87.8349 
11.10955 0 87.91218 
11.04231 0 87.90445 
10.97723 0 87.88586 
9.382729 0 101.5933 
8.116889 0 80.16988 
8.182544 0 80.15344 
7.785248 0 96.37702 
7.333865 0 96.49455 
6.908839 0 96.68668 
6.522395 0 96.94787 
6.185651 0 97.27061 
5.908295 0 97.64562 
5.698305 0 98.06211 
5.561723 0 98.5081 
5.502478 0 98.97076 
5.522274 0 99.43677 
5.620542 0 99.89274 
5.794454 0 100.3255 
6.039008 0 100.7227 
6.347168 0 101.0728 
6.710069 0 101.3659 
7.117271 0 101.5933 
7.55706 0 101.7487 
8.016784 0 101.8276 
10.20493 0 112.7553 
11.36445 0 81.41532 
11.41608 0 81.45912 
11.45988 0 81.51075 
12.54327 0 84.28085 
12.5963 0 84.32292 
12.64177 0 84.37307 
12.67846 0 84.42996 
12.70539 0 84.49207 
12.72184 0 84.55772 
10.91604 0 87.85693 
8.44521 0 80.19681 
8.502094 0 80.23348 
5.322791 0 87.90901 
5.256606 0 87.89474 
5.193632 0 87.86987 
7.85 0 80.45484 
7.872801 0 80.39111 
7.90568 0 80.33195 
5.005497 0 81.56894 
5.040294 0 81.51089 
5.084082 0 81.45927 
5.135692 0 81.41549 
5.193745 0 81.38069 
5.256692 0 81.35582 
5.322849 0 81.34153 
5.390451 0 81.33821 
4.994178 0 128.3508 
3.783276 0 127.7066 
3.853563 0 126.2175 
2.695834 0 126.8707 
2.996465 0 125.3964 
1.761909 0 125.8662 
2.290411 0 124.4423 
1.007315 0 124.7208 
1.755702 0 123.3827 
0.4529091 0 123.4663 
1.407711 0 122.2479 
0.1140153 0 122.1372 
1.256444 0 121.0706 
0 0 120.7704 
1.306247 0 119.8848 
0.1140153 0 119.4035 
1.555692 0 118.7243 
0.4529091 0 118.0745 
1.997604 0 117.6227 
1.007315 0 116.8199 
2.619281 0 116.6116 
1.761909 0 115.6746 
3.402845 0 115.7201 
2.695834 0 114.6701 
4.325771 0 114.9738 
3.783276 0 113.8342 
5.361523 0 114.3941 
4.994178 0 113.19 
6.480321 0 113.9978 
6.295072 0 112.7553 
12.42035 0 84.22519 
12.4841 0 84.24799 
12.72737 0 84.62519 
12.72184 0 84.69266 
12.70539 0 84.75832 
12.67846 0 84.82043 
12.64177 0 84.87731 
12.5963 0 84.92747 
12.54327 0 84.96954 
12.4841 0 85.00241 
12.42035 0 85.02519 
11.52925 0 87.4175 
11.53699 0 87.48475 
11.53367 0 87.55235 
11.51938 0 87.6185 
11.4945 0 87.68145 
11.45971 0 87.7395 
4.962884 0 87.48478 
5.005322 0 87.68156 
4.96618 0 87.55241 
4.980453 0 87.61859 
5.040123 0 87.73964 
4.970654 0 87.41752 
3.956728 0 84.28085 
3.956728 0 84.96954 
3.903697 0 84.92747 
4.970748 0 81.83289 
4.963013 0 81.76565 
4.989334 0 81.89796 
4.966334 0 81.69804 
4.980623 0 81.63188 
11.52935 0 81.83287 
11.51955 0 81.63181 
11.53712 0 81.76562 
11.53382 0 81.69798 
11.49468 0 81.56883 
11.51072 0 81.89796 
7.947756 0 80.27893 
7.997906 0 80.23348 
8.05479 0 80.19681 
3.77816 0 84.55772 
3.794611 0 84.49207 
3.772626 0 84.62519 
3.821541 0 84.42996 
3.77816 0 84.69266 
3.85823 0 84.87731 
3.821541 0 84.82043 
3.903697 0 84.32292 
3.85823 0 84.37307 
3.794611 0 84.75832 
8.25 0.5 102.0875 
7.995582 0.5 102.0767 
7.494066 0.5 101.9907 
7.014296 0.5 101.8212 
6.570076 0.5 101.573 
6.174183 0.5 101.2533 
5.838008 0.5 100.8714 
5.571222 0.5 100.4381 
5.381499 0.5 99.96593 
5.274299 0.5 99.46852 
5.252703 0.5 98.96014 
5.317334 0.5 98.45543 
5.466332 0.5 97.96889 
5.695413 0.5 97.51455 
5.997983 0.5 97.10545 
6.36534 0.5 96.75336 
6.786915 0.5 96.46843 
7.25058 0.5 96.25883 
7.742997 0.5 96.13062 
8.25 0.5 96.08747 
8.757003 0.5 96.13062 
9.249419 0.5 96.25883 
9.713084 0.5 96.46843 
10.13466 0.5 96.75336 
10.50202 0.5 97.10545 
10.80459 0.5 97.51455 
11.03367 0.5 97.96889 
11.18267 0.5 98.45543 
11.2473 0.5 98.96014 
11.2257 0.5 99.46852 
11.1185 0.5 99.96593 
10.92878 0.5 100.4381 
10.66199 0.5 100.8714 
10.32582 0.5 101.2533 
9.929924 0.5 101.573 
9.485703 0.5 101.8212 
9.005934 0.5 101.9907 
8.504417 0.5 102.0767 
8.287161 0.5 142.947 
8.360469 0.5 142.9348 
8.7 0.5 142.4985 
7.894886 0.5 142.7749 
7.8 0.5 142.4985 
7.854236 0.5 142.7127 
7.806137 0.5 142.5726 
7.824382 0.5 142.6446 
7.945223 0.5 142.8296 
8.003874 0.5 142.8752 
8.069237 0.5 142.9106 
8.078841 0.5 115.839 
8.098968 0.5 115.8666 
8.182858 0.5 115.9239 
8.123508 0.5 115.8904 
8.151748 0.5 115.9097 
8.215931 0.5 115.9326 
8.25 0.5 115.9355 
8.05404 0.5 115.7755 
8.284069 0.5 115.9326 
8.317142 0.5 115.9239 
8.348252 0.5 115.9097 
8.376492 0.5 115.8904 
8.401032 0.5 115.8666 
8.421159 0.5 115.839 
8.436281 0.5 115.8083 
8.063719 0.5 115.8083 
8.430763 0.5 142.9106 
8.496126 0.5 142.8752 
8.554777 0.5 142.8296 
8.605113 0.5 142.7749 
8.645763 0.5 142.7127 
8.693863 0.5 142.5726 
8.675618 0.5 142.6446 
8.849999 0.5 112.5422 
7.65 0.5 113.7961 
7.65 0.5 112.5422 
6.480321 0.5 113.9978 
6.295072 0.5 112.7553 
5.361523 0.5 114.3941 
4.994178 0.5 113.19 
4.325771 0.5 114.9738 
3.783276 0.5 113.8342 
3.402845 0.5 115.7201 
2.695834 0.5 114.6701 
2.619281 0.5 116.6116 
1.761909 0.5 115.6746 
1.997604 0.5 117.6227 
1.007315 0.5 116.8199 
1.555692 0.5 118.7243 
0.4529091 0.5 118.0745 
1.306247 0.5 119.8848 
0.1140153 0.5 119.4035 
1.256444 0.5 121.0706 
0 0.5 120.7704 
1.407711 0.5 122.2479 
0.1140153 0.5 122.1372 
1.755702 0.5 123.3827 
0.4529091 0.5 123.4663 
2.290411 0.5 124.4423 
1.007315 0.5 124.7208 
2.996465 0.5 125.3964 
1.761909 0.5 125.8662 
3.853563 0.5 126.2175 
2.695834 0.5 126.8707 
4.837064 0.5 126.882 
3.783276 0.5 127.7066 
5.91869 0.5 127.3707 
4.994178 0.5 128.3508 
7.067344 0.5 127.6697 
6.295072 0.5 128.7854 
8.25 0.5 127.7704 
7.65 0.5 128.9985 
8.212839 0.5 142.947 
8.139531 0.5 142.9348 
8.849999 0.5 113.7961 
10.20493 0.5 112.7553 
10.01968 0.5 113.9978 
11.50582 0.5 113.19 
11.13848 0.5 114.3941 
12.71672 0.5 113.8342 
12.17423 0.5 114.9738 
13.80417 0.5 114.6701 
13.09715 0.5 115.7201 
14.73809 0.5 115.6746 
13.88072 0.5 116.6116 
15.49269 0.5 116.8199 
14.50239 0.5 117.6227 
16.04709 0.5 118.0745 
14.94431 0.5 118.7243 
16.38598 0.5 119.4035 
15.19375 0.5 119.8848 
16.5 0.5 120.7704 
15.24356 0.5 121.0706 
16.38598 0.5 122.1372 
15.09229 0.5 122.2479 
16.04709 0.5 123.4663 
14.7443 0.5 123.3827 
15.49269 0.5 124.7208 
14.20959 0.5 124.4423 
14.73809 0.5 125.8662 
13.50353 0.5 125.3964 
13.80417 0.5 126.8707 
12.64644 0.5 126.2175 
12.71672 0.5 127.7066 
11.66294 0.5 126.882 
11.50582 0.5 128.3508 
10.58131 0.5 127.3707 
10.20493 0.5 128.7854 
9.432656 0.5 127.6697 
8.849999 0.5 128.9985 
11.30637 0.5 81.38052 
11.24339 0.5 81.35564 
11.48173 0.5 81.95915 
7.85 0.5 80.45484 
7.65 0.5 81.94144 
8.116889 0.5 80.16988 
9.723433 0.5 86.94716 
9.30238 0.5 87.16586 
12.42035 0.5 84.22519 
10.93375 0.5 84.0252 
5.92804 0.5 86.09863 
10.79067 0.5 83.57281 
11.17721 0.5 81.34137 
11.10958 0.5 81.33808 
11.04232 0.5 81.34585 
10.97723 0.5 81.36447 
10.91604 0.5 81.39346 
10.57196 0.5 83.15176 
7.19762 0.5 82.08452 
5.92804 0.5 83.15176 
7.19762 0.5 87.16586 
6.776568 0.5 86.94716 
5.583957 0.5 87.85693 
5.018271 0.5 87.29124 
8.849999 0.5 87.30894 
7.65 0.5 87.30894 
11.45988 0.5 81.51075 
11.41608 0.5 81.45912 
11.36445 0.5 81.41532 
5.566252 0.5 85.2252 
5.709332 0.5 85.67757 
5.566252 0.5 84.0252 
5.709332 0.5 83.57281 
9.723433 0.5 82.30323 
4.079646 0.5 85.02519 
4.079646 0.5 84.22519 
4.015904 0.5 85.00241 
5.390417 0.5 87.91232 
5.457676 0.5 87.90454 
5.52277 0.5 87.88591 
12.54327 0.5 84.96954 
12.4841 0.5 85.00241 
12.42035 0.5 85.02519 
12.5963 0.5 84.92747 
12.64177 0.5 84.87731 
12.67846 0.5 84.82043 
12.70539 0.5 84.75832 
12.72184 0.5 84.69266 
12.72737 0.5 84.62519 
11.04231 0.5 87.90445 
11.10955 0.5 87.91218 
11.51067 0.5 87.35242 
11.17715 0.5 87.90887 
11.24331 0.5 87.89458 
8.445959 0.5 115.7755 
9.30238 0.5 82.08452 
8.849999 0.5 81.94144 
8.650001 0.5 80.45484 
8.627198 0.5 80.39111 
8.59432 0.5 80.33195 
8.552244 0.5 80.27893 
8.502094 0.5 80.23348 
4.989283 0.5 87.35242 
5.083924 0.5 87.79128 
5.135554 0.5 87.83508 
12.72184 0.5 84.55772 
12.70539 0.5 84.49207 
12.67846 0.5 84.42996 
12.64177 0.5 84.37307 
12.5963 0.5 84.32292 
12.54327 0.5 84.28085 
12.4841 0.5 84.24799 
11.48173 0.5 87.29124 
10.91604 0.5 87.85693 
10.97723 0.5 87.88586 
11.30625 0.5 87.8697 
11.36431 0.5 87.8349 
11.41592 0.5 87.79111 
11.53382 0.5 81.69798 
11.51955 0.5 81.63181 
11.53712 0.5 81.76562 
11.52935 0.5 81.83287 
11.51072 0.5 81.89796 
11.49468 0.5 81.56883 
8.44521 0.5 80.19681 
8.383111 0.5 80.16988 
8.317456 0.5 80.15344 
8.25 0.5 80.1479 
8.182544 0.5 80.15344 
7.947756 0.5 80.27893 
7.997906 0.5 80.23348 
8.05479 0.5 80.19681 
7.90568 0.5 80.33195 
7.872801 0.5 80.39111 
6.776568 0.5 82.30323 
5.583957 0.5 81.39346 
5.522772 0.5 81.36452 
5.457691 0.5 81.34595 
5.390451 0.5 81.33821 
5.322849 0.5 81.34153 
5.256692 0.5 81.35582 
5.193745 0.5 81.38069 
5.135692 0.5 81.41549 
5.084082 0.5 81.45927 
5.040294 0.5 81.51089 
5.018271 0.5 81.95915 
4.015904 0.5 84.24799 
3.956728 0.5 84.28085 
3.903697 0.5 84.32292 
3.794611 0.5 84.49207 
3.77816 0.5 84.55772 
3.772626 0.5 84.62519 
5.193632 0.5 87.86987 
5.256606 0.5 87.89474 
5.322791 0.5 87.90901 
11.45971 0.5 87.7395 
11.4945 0.5 87.68145 
11.51938 0.5 87.6185 
11.53367 0.5 87.55235 
11.53699 0.5 87.48475 
11.52925 0.5 87.4175 
4.980623 0.5 81.63188 
4.966334 0.5 81.69804 
4.989334 0.5 81.89796 
4.963013 0.5 81.76565 
4.970748 0.5 81.83289 
3.794611 0.5 84.75832 
3.821541 0.5 84.82043 
3.821541 0.5 84.42996 
3.85823 0.5 84.87731 
3.903697 0.5 84.92747 
3.85823 0.5 84.37307 
3.956728 0.5 84.96954 
4.970654 0.5 87.41752 
5.005322 0.5 87.68156 
5.040123 0.5 87.73964 
4.962884 0.5 87.48478 
4.96618 0.5 87.55241 
4.980453 0.5 87.61859 
5.005497 0.5 81.56894 
3.77816 0.5 84.69266 
7.8 -2.168404e-16 142.4985 
7.65 -2.168404e-16 128.9985 
8.849999 -2.168404e-16 128.9985 
8.7 -2.168404e-16 142.4985 
8.05404 -2.168404e-16 115.7755 
7.65 -2.168404e-16 113.7961 
9.723433 -2.168404e-16 82.30323 
10.91604 -2.168404e-16 81.39346 
8.650001 -2.168404e-16 80.45484 
8.849999 -2.168404e-16 81.94144 
5.018271 -2.168404e-16 87.29124 
5.92804 -2.168404e-16 86.09863 
3 0 1 2 
3 0 2 3 
3 3 2 4 
3 3 4 5 
3 6 7 8 
3 6 8 9 
3 9 8 10 
3 9 10 11 
3 11 10 12 
3 11 12 13 
3 13 12 14 
3 13 14 15 
3 15 14 16 
3 15 16 17 
3 17 16 18 
3 17 18 19 
3 19 18 20 
3 19 20 21 
3 21 20 22 
3 21 22 23 
3 23 22 24 
3 23 24 25 
3 25 24 26 
3 25 26 27 
3 27 26 28 
3 27 28 29 
3 29 28 30 
3 29 30 31 
3 31 30 32 
3 31 32 33 
3 33 32 34 
3 33 34 35 
3 35 34 36 
3 35 36 37 
3 37 36 38 
3 37 38 39 
3 39 38 40 
3 39 40 41 
3 42 43 44 
3 42 44 45 
3 45 44 46 
3 45 46 47 
3 47 46 48 
3 47 48 49 
3 49 48 50 
3 49 50 51 
3 51 50 52 
3 51 52 53 
3 53 52 54 
3 53 54 55 
3 55 54 56 
3 55 56 57 
3 57 56 58 
3 57 58 59 
3 59 58 60 
3 59 60 61 
3 61 60 62 
3 61 62 63 
3 63 62 64 
3 63 64 65 
3 65 64 66 
3 65 66 67 
3 67 66 68 
3 67 68 69 
3 69 68 70 
3 69 70 71 
3 71 70 72 
3 71 72 73 
3 73 72 74 
3 73 74 75 
3 75 74 76 
3 75 76 77 
3 78 79 80 
3 80 79 81 
3 80 81 82 
3 82 81 83 
3 82 83 84 
3 84 83 85 
3 84 85 86 
3 86 85 87 
3 86 87 88 
3 88 87 89 
3 88 89 90 
3 90 89 91 
3 90 91 92 
3 92 91 93 
3 92 93 94 
3 94 93 95 
3 94 95 96 
3 96 95 97 
3 96 97 98 
3 98 97 99 
3 98 99 100 
3 100 99 101 
3 100 101 102 
3 102 101 103 
3 102 103 104 
3 104 103 105 
3 104 105 106 
3 106 105 107 
3 106 107 108 
3 108 107 109 
3 108 109 110 
3 110 109 111 
3 110 111 112 
3 112 111 113 
3 112 113 114 
3 114 113 115 
3 114 115 116 
3 116 115 117 
3 116 117 118 
3 118 117 119 
3 118 119 120 
3 120 119 121 
3 120 121 122 
3 122 121 123 
3 122 123 124 
3 124 123 125 
3 124 125 126 
3 126 125 127 
3 126 127 128 
3 128 127 129 
3 128 129 130 
3 130 129 131 
3 130 131 132 
3 132 131 133 
3 132 133 134 
3 134 133 135 
3 134 135 136 
3 136 135 137 
3 136 137 138 
3 138 137 139 
3 138 139 140 
3 140 139 141 
3 140 141 142 
3 142 141 143 
3 142 143 144 
3 144 143 145 
3 144 145 146 
3 146 145 147 
3 146 147 148 
3 148 147 149 
3 148 149 150 
3 150 149 151 
3 150 151 152 
3 152 151 153 
3 152 153 78 
3 78 153 79 
3 154 76 155 
3 156 157 158 
3 158 157 159 
3 158 159 160 
3 155 76 161 
3 162 163 164 
3 160 165 158 
3 158 165 166 
3 158 166 167 
3 167 168 158 
3 158 168 169 
3 158 169 170 
3 170 171 158 
3 158 171 172 
3 158 172 173 
3 174 173 175 
3 175 173 176 
3 174 177 173 
3 173 177 178 
3 173 178 158 
3 179 180 181 
3 182 183 184 
3 184 183 185 
3 184 185 43 
3 43 185 40 
3 186 187 40 
3 188 189 190 
3 191 192 4 
3 186 40 193 
3 180 194 181 
3 181 194 195 
3 181 195 196 
3 196 197 181 
3 181 197 198 
3 181 198 199 
3 191 4 200 
3 201 2 1 
3 202 203 204 
3 204 203 205 
3 155 205 154 
3 154 205 203 
3 154 203 206 
3 206 203 207 
3 206 207 208 
3 209 210 211 
3 189 188 212 
3 213 214 212 
3 212 214 215 
3 212 215 216 
3 217 218 181 
3 181 218 219 
3 181 219 179 
3 199 220 181 
3 181 220 221 
3 181 221 222 
3 222 223 181 
3 181 223 224 
3 181 224 225 
3 225 224 226 
3 227 163 228 
3 228 163 162 
3 228 162 181 
3 181 162 229 
3 181 229 217 
3 230 231 232 
3 232 231 233 
3 230 232 234 
3 234 232 200 
3 234 200 201 
3 201 200 4 
3 201 4 2 
3 235 236 237 
3 238 239 1 
3 1 239 240 
3 241 242 203 
3 203 242 243 
3 203 243 244 
3 245 46 44 
3 161 76 246 
3 246 76 74 
3 246 74 247 
3 247 74 72 
3 247 72 248 
3 248 72 70 
3 248 70 249 
3 249 70 68 
3 249 68 250 
3 250 68 66 
3 250 66 251 
3 251 66 64 
3 251 64 252 
3 252 64 62 
3 252 62 253 
3 253 62 60 
3 253 60 254 
3 254 60 58 
3 254 58 255 
3 255 58 56 
3 255 56 256 
3 256 56 54 
3 256 54 257 
3 257 54 52 
3 257 52 258 
3 258 52 50 
3 258 50 245 
3 245 50 48 
3 245 48 46 
3 190 259 188 
3 188 259 260 
3 188 260 211 
3 211 260 261 
3 211 261 209 
3 262 263 264 
3 188 265 212 
3 212 265 266 
3 212 266 213 
3 213 266 267 
3 213 267 268 
3 268 267 269 
3 268 269 270 
3 271 272 273 
3 273 272 274 
3 273 274 215 
3 215 274 275 
3 215 275 216 
3 164 276 162 
3 162 276 277 
3 162 277 278 
3 278 277 279 
3 278 279 280 
3 280 279 281 
3 280 281 282 
3 282 281 283 
3 282 283 284 
3 284 283 285 
3 284 285 286 
3 286 285 287 
3 286 287 288 
3 288 287 289 
3 288 289 290 
3 290 289 291 
3 290 291 292 
3 292 291 293 
3 292 293 294 
3 294 293 295 
3 294 295 296 
3 296 295 297 
3 296 297 298 
3 298 297 299 
3 298 299 300 
3 300 299 301 
3 300 301 302 
3 302 301 303 
3 302 303 304 
3 304 303 305 
3 304 305 306 
3 306 305 307 
3 306 307 308 
3 233 309 232 
3 232 309 310 
3 232 310 311 
3 235 237 1 
3 1 237 312 
3 1 312 238 
3 240 313 1 
3 1 313 314 
3 1 314 315 
3 187 316 40 
3 40 316 245 
3 40 245 43 
3 43 245 44 
3 317 318 212 
3 212 318 205 
3 212 205 189 
3 189 205 155 
3 189 155 7 
3 7 155 319 
3 7 319 8 
3 8 319 320 
3 8 320 10 
3 10 320 321 
3 10 321 12 
3 12 321 322 
3 12 322 14 
3 14 322 323 
3 14 323 16 
3 16 323 324 
3 16 324 18 
3 18 324 325 
3 18 325 20 
3 20 325 326 
3 20 326 22 
3 22 326 327 
3 22 327 24 
3 24 327 328 
3 24 328 26 
3 26 328 329 
3 26 329 28 
3 28 329 330 
3 28 330 30 
3 30 330 331 
3 30 331 32 
3 32 331 332 
3 32 332 34 
3 34 332 333 
3 34 333 36 
3 36 333 334 
3 36 334 38 
3 38 334 335 
3 38 335 40 
3 40 335 336 
3 40 336 193 
3 182 184 307 
3 307 184 337 
3 307 337 308 
3 311 338 232 
3 232 338 339 
3 232 339 340 
3 341 342 4 
3 4 342 343 
3 343 344 4 
3 4 344 345 
3 4 345 346 
3 207 201 208 
3 208 201 1 
3 208 1 347 
3 347 1 315 
3 202 348 203 
3 203 348 349 
3 203 349 241 
3 210 350 211 
3 211 350 351 
3 211 351 264 
3 264 351 352 
3 264 352 262 
3 212 353 317 
3 317 353 354 
3 317 354 355 
3 356 357 273 
3 273 357 358 
3 358 359 273 
3 273 359 360 
3 273 360 361 
3 361 362 273 
3 273 362 363 
3 273 363 271 
3 227 364 163 
3 163 364 365 
3 163 365 366 
3 366 365 367 
3 366 367 368 
3 368 367 369 
3 368 369 370 
3 370 369 371 
3 370 371 372 
3 372 371 373 
3 372 373 374 
3 374 373 375 
3 374 375 376 
3 376 375 377 
3 376 377 378 
3 378 377 379 
3 378 379 380 
3 380 379 381 
3 380 381 382 
3 382 381 383 
3 382 383 384 
3 384 383 385 
3 384 385 386 
3 386 385 387 
3 386 387 388 
3 388 387 389 
3 388 389 390 
3 390 389 391 
3 390 391 392 
3 392 391 393 
3 392 393 156 
3 156 393 185 
3 156 185 157 
3 157 185 183 
3 192 394 4 
3 4 394 395 
3 4 395 341 
3 346 396 4 
3 4 396 397 
3 4 397 398 
3 398 399 4 
3 4 399 400 
3 4 400 401 
3 401 402 4 
3 4 402 403 
3 4 403 404 
3 405 406 236 
3 236 406 407 
3 236 407 408 
3 408 409 236 
3 236 409 410 
3 236 410 237 
3 411 412 413 
3 413 412 414 
3 263 415 264 
3 264 415 412 
3 264 412 416 
3 416 412 411 
3 270 269 417 
3 417 269 418 
3 417 418 419 
3 420 421 422 
3 422 421 423 
3 422 423 273 
3 273 423 424 
3 273 424 356 
3 425 426 427 
3 427 426 428 
3 340 429 232 
3 232 429 426 
3 232 426 430 
3 430 426 425 
3 355 431 317 
3 317 431 432 
3 317 432 433 
3 434 435 436 
3 436 435 437 
3 436 437 438 
3 419 439 417 
3 417 439 440 
3 417 440 441 
3 441 440 442 
3 442 440 437 
3 437 440 443 
3 437 443 438 
3 151 149 444 
3 444 149 445 
3 149 147 445 
3 445 147 145 
3 445 145 446 
3 446 145 143 
3 446 143 447 
3 447 143 141 
3 447 141 448 
3 448 141 139 
3 448 139 449 
3 449 139 137 
3 449 137 450 
3 450 137 135 
3 450 135 451 
3 451 135 133 
3 451 133 452 
3 452 133 131 
3 452 131 453 
3 453 131 129 
3 453 129 454 
3 454 129 127 
3 454 127 455 
3 455 127 125 
3 455 125 456 
3 456 125 123 
3 456 123 457 
3 457 123 121 
3 457 121 458 
3 458 121 119 
3 458 119 459 
3 459 119 117 
3 459 117 460 
3 460 117 115 
3 460 115 461 
3 461 115 113 
3 461 113 462 
3 462 113 111 
3 462 111 463 
3 463 111 109 
3 463 109 464 
3 464 109 107 
3 464 107 465 
3 465 107 105 
3 465 105 466 
3 466 105 103 
3 466 103 467 
3 467 103 101 
3 467 101 468 
3 468 101 99 
3 468 99 469 
3 469 99 97 
3 469 97 470 
3 470 97 95 
3 470 95 471 
3 471 95 93 
3 471 93 472 
3 472 93 91 
3 472 91 473 
3 473 91 89 
3 473 89 474 
3 474 89 87 
3 474 87 475 
3 475 87 85 
3 475 85 476 
3 476 85 83 
3 476 83 477 
3 477 83 81 
3 477 81 478 
3 478 81 79 
3 478 79 479 
3 479 79 153 
3 479 153 480 
3 480 153 151 
3 480 151 481 
3 481 151 444 
3 110 155 108 
3 108 155 161 
3 108 161 106 
3 106 161 246 
3 106 246 104 
3 104 246 247 
3 104 247 102 
3 102 247 248 
3 102 248 100 
3 100 248 249 
3 100 249 98 
3 98 249 250 
3 98 250 96 
3 96 250 251 
3 96 251 94 
3 94 251 252 
3 94 252 92 
3 92 252 253 
3 92 253 90 
3 90 253 254 
3 90 254 88 
3 88 254 255 
3 88 255 86 
3 86 255 256 
3 86 256 84 
3 84 256 257 
3 84 257 82 
3 82 257 258 
3 82 258 80 
3 80 258 245 
3 80 245 78 
3 78 245 316 
3 78 316 152 
3 152 316 187 
3 152 187 150 
3 150 187 186 
3 150 186 148 
3 148 186 193 
3 148 193 146 
3 146 193 336 
3 146 336 144 
3 144 336 335 
3 144 335 142 
3 142 335 334 
3 142 334 140 
3 140 334 333 
3 140 333 138 
3 138 333 332 
3 138 332 136 
3 136 332 331 
3 136 331 134 
3 134 331 330 
3 134 330 132 
3 132 330 329 
3 132 329 130 
3 130 329 328 
3 130 328 128 
3 128 328 327 
3 128 327 126 
3 126 327 326 
3 126 326 124 
3 124 326 325 
3 124 325 122 
3 122 325 324 
3 122 324 120 
3 120 324 323 
3 120 323 118 
3 118 323 322 
3 118 322 116 
3 116 322 321 
3 116 321 114 
3 114 321 320 
3 114 320 112 
3 112 320 319 
3 112 319 110 
3 110 319 155 
3 482 483 484 
3 42 476 477 
3 485 486 487 
3 487 486 488 
3 487 488 489 
3 485 490 486 
3 486 490 491 
3 486 491 492 
3 493 494 495 
3 495 494 496 
3 495 496 497 
3 498 499 500 
3 500 499 501 
3 501 502 500 
3 500 502 503 
3 500 503 504 
3 504 505 500 
3 500 505 506 
3 500 506 507 
3 462 77 461 
3 461 77 460 
3 498 500 495 
3 495 500 508 
3 495 508 493 
3 483 509 484 
3 484 509 510 
3 484 510 511 
3 511 512 484 
3 484 512 513 
3 484 513 514 
3 514 513 515 
3 477 478 42 
3 42 478 479 
3 42 479 480 
3 480 481 42 
3 42 481 444 
3 42 444 516 
3 517 518 519 
3 519 518 520 
3 519 520 521 
3 521 520 522 
3 521 522 523 
3 523 522 524 
3 523 524 525 
3 525 524 526 
3 525 526 527 
3 527 526 528 
3 527 528 529 
3 529 528 530 
3 529 530 531 
3 531 530 532 
3 531 532 533 
3 533 532 534 
3 533 534 535 
3 535 534 536 
3 535 536 537 
3 537 536 538 
3 537 538 539 
3 539 538 540 
3 539 540 541 
3 541 540 542 
3 541 542 543 
3 543 542 544 
3 543 544 545 
3 545 544 546 
3 545 546 547 
3 547 546 548 
3 547 548 549 
3 549 548 550 
3 549 550 551 
3 551 550 552 
3 551 552 553 
3 553 552 554 
3 553 554 555 
3 555 554 486 
3 555 486 556 
3 556 486 492 
3 516 557 558 
3 558 557 559 
3 558 559 560 
3 560 559 561 
3 560 561 562 
3 562 561 563 
3 562 563 564 
3 564 563 565 
3 564 565 566 
3 566 565 567 
3 566 567 568 
3 568 567 569 
3 568 569 570 
3 570 569 571 
3 570 571 572 
3 572 571 573 
3 572 573 574 
3 574 573 575 
3 574 575 576 
3 576 575 577 
3 576 577 578 
3 578 577 579 
3 578 579 580 
3 580 579 581 
3 580 581 582 
3 582 581 583 
3 582 583 584 
3 584 583 585 
3 584 585 586 
3 586 585 587 
3 586 587 588 
3 588 587 589 
3 588 589 590 
3 590 589 591 
3 590 591 592 
3 592 591 553 
3 592 553 484 
3 484 553 555 
3 484 555 482 
3 593 594 595 
3 596 597 598 
3 0 3 599 
3 599 3 5 
3 599 5 600 
3 42 45 476 
3 476 45 47 
3 476 47 49 
3 601 602 603 
3 603 602 604 
3 462 463 77 
3 77 463 464 
3 77 464 75 
3 75 464 465 
3 75 465 73 
3 73 465 466 
3 73 466 71 
3 71 466 467 
3 71 467 69 
3 69 467 468 
3 69 468 67 
3 67 468 469 
3 67 469 65 
3 65 469 470 
3 65 470 63 
3 63 470 471 
3 63 471 61 
3 61 471 472 
3 61 472 59 
3 59 472 473 
3 59 473 57 
3 57 473 474 
3 57 474 55 
3 55 474 475 
3 55 475 53 
3 53 475 476 
3 53 476 51 
3 51 476 49 
3 594 605 595 
3 595 605 606 
3 595 606 607 
3 607 608 595 
3 595 608 609 
3 595 609 610 
3 597 611 612 
3 613 601 614 
3 614 601 603 
3 614 603 615 
3 615 603 616 
3 600 5 617 
3 617 5 618 
3 617 618 77 
3 77 618 6 
3 77 6 460 
3 619 620 595 
3 595 620 621 
3 595 621 593 
3 622 623 624 
3 624 623 603 
3 624 603 625 
3 625 603 604 
3 625 604 612 
3 612 604 610 
3 612 610 626 
3 626 610 609 
3 622 624 627 
3 627 624 628 
3 627 628 629 
3 630 631 616 
3 616 631 632 
3 616 632 615 
3 633 5 634 
3 634 5 635 
3 633 636 5 
3 5 636 637 
3 5 637 638 
3 638 639 5 
3 5 639 640 
3 5 640 641 
3 642 643 644 
3 644 643 645 
3 644 645 646 
3 6 9 460 
3 460 9 11 
3 460 11 459 
3 459 11 13 
3 459 13 458 
3 458 13 15 
3 458 15 457 
3 457 15 17 
3 457 17 456 
3 456 17 19 
3 456 19 455 
3 455 19 21 
3 455 21 454 
3 454 21 23 
3 454 23 453 
3 453 23 25 
3 453 25 452 
3 452 25 27 
3 452 27 451 
3 451 27 29 
3 451 29 450 
3 450 29 31 
3 450 31 449 
3 449 31 33 
3 449 33 448 
3 448 33 35 
3 448 35 447 
3 447 35 37 
3 447 37 446 
3 446 37 39 
3 446 39 445 
3 445 39 41 
3 445 41 444 
3 444 41 518 
3 444 518 516 
3 516 518 517 
3 516 517 557 
3 557 517 500 
3 557 500 647 
3 647 500 507 
3 626 648 612 
3 612 648 649 
3 612 649 597 
3 597 649 650 
3 597 650 651 
3 651 652 597 
3 597 652 653 
3 597 653 654 
3 655 656 657 
3 641 658 5 
3 5 658 659 
3 5 659 660 
3 660 661 5 
3 5 661 662 
3 5 662 663 
3 613 618 601 
3 601 618 5 
3 601 5 664 
3 664 5 663 
3 0 599 665 
3 665 599 666 
3 665 666 644 
3 644 666 667 
3 644 667 642 
3 646 668 644 
3 644 668 669 
3 644 669 670 
3 671 672 673 
3 673 672 674 
3 595 675 619 
3 619 675 674 
3 619 674 676 
3 676 674 672 
3 654 677 597 
3 597 677 678 
3 597 678 679 
3 679 680 597 
3 597 680 681 
3 597 681 598 
3 682 598 683 
3 683 598 684 
3 682 685 598 
3 598 685 686 
3 598 686 596 
3 611 687 612 
3 612 687 688 
3 612 688 689 
3 689 690 612 
3 612 690 691 
3 612 691 692 
3 692 693 612 
3 612 693 694 
3 612 694 695 
3 695 696 612 
3 612 696 697 
3 612 697 698 
3 628 699 629 
3 629 699 700 
3 629 700 701 
3 702 703 704 
3 657 705 655 
3 655 705 706 
3 655 706 616 
3 616 706 707 
3 616 707 630 
3 670 708 644 
3 644 708 709 
3 644 709 710 
3 710 711 644 
3 644 711 712 
3 644 712 713 
3 714 715 716 
3 716 715 717 
3 716 717 718 
3 719 720 721 
3 721 720 722 
3 721 722 723 
3 701 724 629 
3 629 724 721 
3 629 721 725 
3 725 721 723 
3 726 727 655 
3 655 727 728 
3 655 728 656 
3 726 729 727 
3 727 729 730 
3 727 730 731 
3 698 697 716 
3 716 697 732 
3 716 732 714 
3 702 704 721 
3 721 704 733 
3 721 733 719 
3 518 41 185 
3 185 41 40 
3 42 516 43 
3 43 516 184 
3 518 185 393 
3 518 393 520 
3 520 393 391 
3 520 391 522 
3 522 391 389 
3 522 389 524 
3 524 389 387 
3 524 387 526 
3 526 387 385 
3 526 385 528 
3 528 385 383 
3 528 383 530 
3 530 383 381 
3 530 381 532 
3 532 381 379 
3 532 379 534 
3 534 379 377 
3 534 377 536 
3 536 377 375 
3 536 375 538 
3 538 375 373 
3 538 373 540 
3 540 373 371 
3 540 371 542 
3 542 371 369 
3 542 369 544 
3 544 369 367 
3 544 367 546 
3 546 367 365 
3 546 365 548 
3 548 365 364 
3 548 364 550 
3 550 364 227 
3 550 227 552 
3 552 227 228 
3 552 228 554 
3 557 157 559 
3 559 157 183 
3 559 183 561 
3 561 183 182 
3 561 182 563 
3 563 182 307 
3 563 307 565 
3 565 307 305 
3 565 305 567 
3 567 305 303 
3 567 303 569 
3 569 303 301 
3 569 301 571 
3 571 301 299 
3 571 299 573 
3 573 299 297 
3 573 297 575 
3 575 297 295 
3 575 295 577 
3 577 295 293 
3 577 293 579 
3 579 293 291 
3 579 291 581 
3 581 291 289 
3 581 289 583 
3 583 289 287 
3 583 287 585 
3 585 287 285 
3 585 285 587 
3 587 285 283 
3 587 283 589 
3 589 283 281 
3 589 281 591 
3 591 281 279 
3 591 279 553 
3 553 279 277 
3 553 277 551 
3 551 277 276 
3 551 276 549 
3 549 276 164 
3 549 164 547 
3 547 164 163 
3 547 163 545 
3 545 163 366 
3 545 366 543 
3 543 366 368 
3 543 368 541 
3 541 368 370 
3 541 370 539 
3 539 370 372 
3 539 372 537 
3 537 372 374 
3 537 374 535 
3 535 374 376 
3 535 376 533 
3 533 376 378 
3 533 378 531 
3 531 378 380 
3 531 380 529 
3 529 380 382 
3 529 382 527 
3 527 382 384 
3 527 384 525 
3 525 384 386 
3 525 386 523 
3 523 386 388 
3 523 388 521 
3 521 388 390 
3 521 390 519 
3 519 390 392 
3 519 392 517 
3 517 392 156 
3 486 554 734 
3 734 554 735 
3 486 181 225 
3 486 225 488 
3 488 225 226 
3 488 226 489 
3 489 226 224 
3 489 224 487 
3 487 224 223 
3 487 223 485 
3 485 223 222 
3 485 222 490 
3 490 222 221 
3 490 221 491 
3 491 221 220 
3 491 220 492 
3 492 220 199 
3 492 199 556 
3 556 199 198 
3 556 198 555 
3 555 198 197 
3 555 197 482 
3 482 197 196 
3 482 196 483 
3 483 196 195 
3 483 195 509 
3 509 195 194 
3 509 194 510 
3 510 194 180 
3 510 180 511 
3 511 180 179 
3 511 179 512 
3 512 179 219 
3 512 219 513 
3 513 219 218 
3 513 218 515 
3 515 218 217 
3 515 217 514 
3 514 217 229 
3 514 229 484 
3 592 484 736 
3 736 484 737 
3 592 162 278 
3 592 278 590 
3 590 278 280 
3 590 280 588 
3 588 280 282 
3 588 282 586 
3 586 282 284 
3 586 284 584 
3 584 284 286 
3 584 286 582 
3 582 286 288 
3 582 288 580 
3 580 288 290 
3 580 290 578 
3 578 290 292 
3 578 292 576 
3 576 292 294 
3 576 294 574 
3 574 294 296 
3 574 296 572 
3 572 296 298 
3 572 298 570 
3 570 298 300 
3 570 300 568 
3 568 300 302 
3 568 302 566 
3 566 302 304 
3 566 304 564 
3 564 304 306 
3 564 306 562 
3 562 306 308 
3 562 308 560 
3 560 308 337 
3 560 337 558 
3 558 337 184 
3 558 184 516 
3 500 517 738 
3 738 517 739 
3 500 158 178 
3 500 178 508 
3 508 178 177 
3 508 177 493 
3 493 177 174 
3 493 174 494 
3 494 174 175 
3 494 175 496 
3 496 175 176 
3 496 176 497 
3 497 176 173 
3 497 173 495 
3 495 173 172 
3 495 172 498 
3 498 172 171 
3 498 171 499 
3 499 171 170 
3 499 170 501 
3 501 170 169 
3 501 169 502 
3 502 169 168 
3 502 168 503 
3 503 168 167 
3 503 167 504 
3 504 167 166 
3 504 166 505 
3 505 166 165 
3 505 165 506 
3 506 165 160 
3 506 160 507 
3 507 160 159 
3 507 159 647 
3 557 647 157 
3 157 647 159 
3 6 618 7 
3 7 618 189 
3 617 77 154 
3 154 77 76 
3 617 154 206 
3 617 206 600 
3 600 206 208 
3 600 208 599 
3 622 266 265 
3 622 265 623 
3 623 265 188 
3 623 188 603 
3 612 215 214 
3 612 214 625 
3 625 214 213 
3 625 213 624 
3 614 259 190 
3 614 190 613 
3 613 190 189 
3 613 189 618 
3 597 212 216 
3 597 216 611 
3 611 216 275 
3 611 275 687 
3 626 201 207 
3 626 207 648 
3 648 207 203 
3 648 203 649 
3 602 192 191 
3 602 191 604 
3 604 191 200 
3 604 200 610 
3 635 5 404 
3 404 5 4 
3 635 404 403 
3 635 403 634 
3 634 403 402 
3 634 402 633 
3 633 402 401 
3 633 401 636 
3 636 401 400 
3 636 400 637 
3 637 400 399 
3 637 399 638 
3 638 399 398 
3 638 398 639 
3 639 398 397 
3 639 397 640 
3 640 397 396 
3 640 396 641 
3 641 396 346 
3 641 346 658 
3 658 346 345 
3 658 345 659 
3 659 345 344 
3 659 344 660 
3 660 344 343 
3 660 343 661 
3 661 343 342 
3 661 342 662 
3 662 342 341 
3 662 341 663 
3 663 341 395 
3 663 395 664 
3 664 395 394 
3 664 394 601 
3 602 601 192 
3 192 601 394 
3 626 609 740 
3 740 609 741 
3 595 610 232 
3 232 610 200 
3 595 232 430 
3 595 430 675 
3 675 430 425 
3 675 425 674 
3 674 425 427 
3 674 427 673 
3 673 427 428 
3 673 428 671 
3 671 428 426 
3 671 426 672 
3 672 426 429 
3 672 429 676 
3 676 429 340 
3 676 340 619 
3 619 340 339 
3 619 339 620 
3 620 339 338 
3 620 338 621 
3 621 338 311 
3 621 311 593 
3 593 311 310 
3 593 310 594 
3 594 310 309 
3 594 309 605 
3 605 309 233 
3 605 233 606 
3 606 233 231 
3 606 231 607 
3 607 231 230 
3 607 230 608 
3 608 230 234 
3 608 234 609 
3 597 596 212 
3 212 596 353 
3 650 649 742 
3 742 649 743 
3 650 244 243 
3 650 243 651 
3 651 243 242 
3 651 242 652 
3 652 242 241 
3 652 241 653 
3 653 241 349 
3 653 349 654 
3 654 349 348 
3 654 348 677 
3 677 348 202 
3 677 202 678 
3 678 202 204 
3 678 204 679 
3 679 204 205 
3 679 205 680 
3 680 205 318 
3 680 318 681 
3 681 318 317 
3 681 317 598 
3 598 317 433 
3 598 433 684 
3 684 433 432 
3 684 432 683 
3 683 432 431 
3 683 431 682 
3 682 431 355 
3 682 355 685 
3 685 355 354 
3 685 354 686 
3 686 354 353 
3 686 353 596 
3 612 698 215 
3 215 698 273 
3 688 687 274 
3 274 687 275 
3 688 274 272 
3 688 272 689 
3 689 272 271 
3 689 271 690 
3 690 271 363 
3 690 363 691 
3 691 363 362 
3 691 362 692 
3 692 362 361 
3 692 361 693 
3 693 361 360 
3 693 360 694 
3 694 360 359 
3 694 359 695 
3 695 359 358 
3 695 358 696 
3 696 358 357 
3 696 357 697 
3 697 357 356 
3 697 356 732 
3 732 356 424 
3 732 424 714 
3 714 424 423 
3 714 423 715 
3 715 423 421 
3 715 421 717 
3 717 421 420 
3 717 420 718 
3 718 420 422 
3 718 422 716 
3 716 422 273 
3 716 273 698 
3 628 624 268 
3 268 624 213 
3 628 268 270 
3 628 270 699 
3 699 270 417 
3 699 417 700 
3 700 417 441 
3 700 441 701 
3 701 441 442 
3 701 442 724 
3 724 442 437 
3 724 437 721 
3 721 437 435 
3 721 435 702 
3 702 435 434 
3 702 434 703 
3 703 434 436 
3 703 436 704 
3 704 436 438 
3 704 438 733 
3 733 438 443 
3 733 443 719 
3 719 443 440 
3 719 440 720 
3 720 440 439 
3 720 439 722 
3 722 439 419 
3 722 419 723 
3 723 419 418 
3 723 418 725 
3 725 418 269 
3 725 269 629 
3 629 269 267 
3 629 267 627 
3 622 627 266 
3 266 627 267 
3 616 603 744 
3 744 603 745 
3 616 211 264 
3 616 264 655 
3 655 264 416 
3 655 416 726 
3 726 416 411 
3 726 411 729 
3 729 411 413 
3 729 413 730 
3 730 413 414 
3 730 414 731 
3 731 414 412 
3 731 412 727 
3 727 412 415 
3 727 415 728 
3 728 415 263 
3 728 263 656 
3 656 263 262 
3 656 262 657 
3 657 262 352 
3 657 352 705 
3 705 352 351 
3 705 351 706 
3 706 351 350 
3 706 350 707 
3 707 350 210 
3 707 210 630 
3 630 210 209 
3 630 209 631 
3 631 209 261 
3 631 261 632 
3 632 261 260 
3 632 260 615 
3 614 615 259 
3 259 615 260 
3 666 599 347 
3 347 599 208 
3 666 347 315 
3 666 315 667 
3 667 315 314 
3 667 314 642 
3 642 314 313 
3 642 313 643 
3 643 313 240 
3 643 240 645 
3 645 240 239 
3 645 239 646 
3 646 239 238 
3 646 238 668 
3 668 238 312 
3 668 312 669 
3 669 312 237 
3 669 237 670 
3 670 237 410 
3 670 410 708 
3 708 410 409 
3 708 409 709 
3 709 409 408 
3 709 408 710 
3 710 408 407 
3 710 407 711 
3 711 407 406 
3 711 406 712 
3 712 406 405 
3 712 405 713 
3 713 405 236 
3 713 236 644 
3 644 236 235 
3 644 235 665 
3 0 665 1 
3 1 665 235 
