ply
format ascii 1.0
comment VCGLIB generated
element vertex 405
property float x
property float y
property float z
element face 792
property list uchar int vertex_indices
end_header
9.67565 1 14.97316 
9.67565 0 14.97316 
8.995277 0 15.14553 
8.995277 1 15.14553 
8.352551 0 15.42752 
8.352551 1 15.42752 
7.765002 0 15.81146 
7.765002 1 15.81146 
7.248652 0 16.28685 
7.248652 1 16.28685 
6.817585 0 16.84075 
6.817585 1 16.84075 
6.483557 0 17.45804 
6.483557 1 17.45804 
6.255679 0 18.12188 
6.255679 1 18.12188 
6.140164 0 18.81418 
6.140164 1 18.81418 
6.140164 0 19.51605 
6.140164 1 19.51605 
6.255679 0 20.20834 
6.255679 1 20.20834 
6.483557 0 20.87219 
6.483557 1 20.87219 
6.817585 0 21.48948 
6.817585 1 21.48948 
7.248652 0 22.04337 
7.248652 1 22.04337 
7.765002 0 22.51877 
7.765002 1 22.51877 
8.352551 0 22.9027 
8.352551 1 22.9027 
8.995277 0 23.1847 
8.995277 1 23.1847 
9.67565 0 23.35707 
9.67565 1 23.35707 
10.34262 1 65.21829 
10.27746 1 65.20742 
9.87565 1 87.91045 
10.87565 1 87.91045 
10.40868 1 65.21829 
1.650812 1 1.47602 
1.275651 1 0 
1.254251 1 1.45011 
10.21497 1 65.18597 
10.15687 1 65.15453 
10.10474 1 65.11395 
10.64656 1 65.11395 
10.59443 1 65.15453 
10.05999 1 65.06534 
10.02386 1 65.01004 
9.997323 1 64.94954 
9.981106 1 64.8855 
9.975651 1 64.81966 
6.675651 1 27.91045 
8.078369 1 29.24564 
9.67565 1 27.35707 
8.243009 1 9.747726 
9.67565 1 9.973157 
8.111966 1 7.418022 
10.53633 1 65.18597 
10.47384 1 65.20742 
9.900389 1 88.0751 
9.932922 1 88.15205 
17.65383 1 4.144642 
18.85621 1 4.269598 
18.48765 1 2.870228 
19.28882 1 2.885355 
19.10049 1 1.47602 
19.49705 1 1.45011 
19.47565 1 0 
14.07565 1 27.91045 
10.77565 1 64.81966 
10.7702 1 64.8855 
10.75398 1 64.94954 
9.977812 1 88.22251 
10.03381 1 88.28452 
10.09934 1 88.33633 
10.17259 1 88.37652 
10.2515 1 88.40394 
10.33388 1 88.41785 
12.63934 1 7.418022 
11.13713 1 7.668525 
11.07565 1 9.973157 
9.614174 1 7.668525 
10.72744 1 65.01004 
10.69131 1 65.06534 
9.881119 1 87.99381 
10.41742 1 88.41785 
10.4998 1 88.40394 
10.57871 1 88.37652 
10.81838 1 88.15205 
10.85091 1 88.0751 
10.77349 1 88.22251 
10.71749 1 88.28452 
10.65196 1 88.33633 
10.87018 1 87.99381 
13.50265 1 16.28685 
12.9863 1 15.81146 
11.07565 1 14.97316 
12.50829 1 9.747726 
13.88725 1 9.298543 
14.07988 1 6.923836 
15.1778 1 8.63691 
15.41951 1 6.199434 
16.34746 1 7.779489 
16.62175 1 5.264547 
17.36679 1 6.747859 
18.21011 1 5.567996 
2.26365 1 2.870228 
1.462478 1 2.885355 
3.097468 1 4.144642 
9.745706 1 21.58445 
9.345898 1 21.44318 
1.895086 1 4.269598 
2.541187 1 5.567996 
4.129551 1 5.264547 
3.384516 1 6.747859 
5.331786 1 6.199434 
4.403841 1 7.779489 
6.671422 1 6.923836 
5.573503 1 8.63691 
6.864054 1 9.298543 
14.61114 1 18.81418 
14.49562 1 18.12188 
12.39875 1 15.42752 
11.75602 1 15.14553 
14.26774 1 17.45804 
13.93372 1 16.84075 
11.07565 1 23.35707 
12.38564 1 20.6517 
12.1055 1 20.97 
11.77559 1 21.23639 
11.4054 1 21.44318 
11.0056 1 21.58445 
10.58767 1 21.65611 
10.37565 1 21.66511 
11.07565 1 27.35707 
10.37565 1 28.82188 
12.67293 1 29.24564 
10.16364 1 21.65611 
9.953149 1 16.70107 
10.37565 1 16.66511 
10.79815 1 16.70107 
11.2085 1 16.80792 
12.50447 1 17.85434 
12.69537 1 18.23297 
12.39875 1 22.9027 
12.9863 1 22.51877 
12.60797 1 20.29062 
8.975714 1 21.23639 
9.542801 1 16.80792 
9.156413 1 16.98258 
8.8051 1 17.22002 
8.498969 1 17.51343 
8.246828 1 17.85434 
8.055928 1 18.23297 
7.931762 1 18.63841 
7.877903 1 19.05901 
7.895899 1 19.48266 
7.985233 1 19.89717 
8.143335 1 20.29062 
8.365657 1 20.6517 
8.645803 1 20.97 
14.26774 1 20.87219 
12.76607 1 19.89717 
14.49562 1 20.20834 
12.8554 1 19.48266 
14.61114 1 19.51605 
12.8734 1 19.05901 
12.81954 1 18.63841 
11.75602 1 23.1847 
13.50265 1 22.04337 
13.93372 1 21.48948 
11.59489 1 16.98258 
11.9462 1 17.22002 
12.25233 1 17.51343 
9.997323 0 64.94954 
10.02386 0 65.01004 
9.87565 0 87.91045 
10.15687 0 65.15453 
10.21497 0 65.18597 
18.85621 0 4.269598 
18.21011 0 5.567996 
17.65383 0 4.144642 
11.07565 0 23.35707 
11.07565 0 27.35707 
10.37565 0 28.82188 
8.078369 0 29.24564 
6.675651 0 27.91045 
9.975651 0 64.81966 
9.981106 0 64.8855 
10.05999 0 65.06534 
10.10474 0 65.11395 
10.27746 0 65.20742 
10.34262 0 65.21829 
10.87565 0 87.91045 
10.40868 0 65.21829 
10.47384 0 65.20742 
10.53633 0 65.18597 
10.59443 0 65.15453 
10.64656 0 65.11395 
10.69131 0 65.06534 
14.07988 0 6.923836 
13.88725 0 9.298543 
12.63934 0 7.418022 
12.50829 0 9.747726 
11.13713 0 7.668525 
11.07565 0 9.973157 
9.614174 0 7.668525 
16.62175 0 5.264547 
17.36679 0 6.747859 
15.41951 0 6.199434 
16.34746 0 7.779489 
15.1778 0 8.63691 
12.67293 0 29.24564 
14.07565 0 27.91045 
10.77565 0 64.81966 
10.7702 0 64.8855 
19.28882 0 2.885355 
18.48765 0 2.870228 
19.49705 0 1.45011 
19.10049 0 1.47602 
19.47565 0 0 
9.67565 0 9.973157 
8.243009 0 9.747726 
8.111966 0 7.418022 
6.864054 0 9.298543 
6.671422 0 6.923836 
5.573503 0 8.63691 
5.331786 0 6.199434 
4.403841 0 7.779489 
4.129551 0 5.264547 
3.384516 0 6.747859 
3.097468 0 4.144642 
10.72744 0 65.01004 
10.75398 0 64.94954 
12.04585 0 18.49397 
11.9084 0 18.22136 
11.07565 0 14.97316 
11.72686 0 17.9759 
11.50645 0 17.76465 
9.67565 0 27.35707 
10.57871 0 88.37652 
10.65196 0 88.33633 
10.71749 0 88.28452 
10.4998 0 88.40394 
10.41742 0 88.41785 
10.33388 0 88.41785 
10.09934 0 88.33633 
10.03381 0 88.28452 
9.977812 0 88.22251 
9.932922 0 88.15205 
10.37565 0 17.36511 
10.67985 0 17.391 
10.9753 0 17.46794 
11.2535 0 17.59369 
10.87018 0 87.99381 
10.85091 0 88.0751 
10.77349 0 88.22251 
10.81838 0 88.15205 
10.2515 0 88.40394 
10.17259 0 88.37652 
2.541187 0 5.567996 
1.895086 0 4.269598 
2.26365 0 2.870228 
1.462478 0 2.885355 
1.650812 0 1.47602 
1.254251 0 1.45011 
1.275651 0 0 
9.900389 0 88.0751 
9.881119 0 87.99381 
8.654551 0 19.69219 
8.768384 0 19.97548 
10.07145 0 17.391 
9.775999 0 17.46794 
9.4978 0 17.59369 
9.244855 0 17.76465 
9.024441 0 17.9759 
8.842897 0 18.22136 
8.70545 0 18.49397 
8.616051 0 18.78589 
8.577272 0 19.08872 
8.59023 0 19.39375 
8.928455 0 20.23545 
9.13016 0 20.46463 
9.367696 0 20.65643 
9.634229 0 20.80532 
9.92209 0 20.90703 
10.223 0 20.95863 
12.13525 0 18.78589 
11.75602 0 15.14553 
12.39875 0 15.42752 
12.9863 0 15.81146 
13.50265 0 16.28685 
13.93372 0 16.84075 
14.26774 0 17.45804 
14.49562 0 18.12188 
12.17403 0 19.08872 
14.61114 0 18.81418 
12.16107 0 19.39375 
14.61114 0 19.51605 
12.09675 0 19.69219 
14.49562 0 20.20834 
11.98292 0 19.97548 
14.26774 0 20.87219 
11.82285 0 20.23545 
13.93372 0 21.48948 
11.62114 0 20.46463 
13.50265 0 22.04337 
11.38361 0 20.65643 
12.9863 0 22.51877 
11.11707 0 20.80532 
12.39875 0 22.9027 
10.82921 0 20.90703 
11.75602 0 23.1847 
10.5283 0 20.95863 
10.37565 0 20.96511 
11.07565 -4.336809e-16 27.35707 
14.07565 -4.336809e-16 27.91045 
6.675651 -4.336809e-16 27.91045 
9.67565 -4.336809e-16 27.35707 
9.87565 -4.336809e-16 87.91045 
10.87565 -4.336809e-16 87.91045 
8.078369 -4.336809e-16 29.24564 
9.975651 -4.336809e-16 64.81966 
10.77565 -4.336809e-16 64.81966 
12.67293 -4.336809e-16 29.24564 
10.37565 -4.336809e-16 28.82188 
10.37565 2 17.36511 
10.67985 2 17.391 
10.9753 2 17.46794 
11.2535 2 17.59369 
11.50645 2 17.76465 
11.72686 2 17.9759 
11.9084 2 18.22136 
12.04585 2 18.49397 
12.13525 2 18.78589 
12.17403 2 19.08872 
12.16107 2 19.39375 
12.09675 2 19.69219 
11.98292 2 19.97548 
11.82285 2 20.23545 
11.62114 2 20.46463 
11.38361 2 20.65643 
11.11707 2 20.80532 
10.82921 2 20.90703 
10.5283 2 20.95863 
10.37565 2 20.96511 
10.223 2 20.95863 
9.92209 2 20.90703 
9.634229 2 20.80532 
9.367696 2 20.65643 
9.13016 2 20.46463 
8.928455 2 20.23545 
8.768384 2 19.97548 
8.654551 2 19.69219 
8.59023 2 19.39375 
8.577272 2 19.08872 
8.616051 2 18.78589 
8.70545 2 18.49397 
8.842897 2 18.22136 
9.024441 2 17.9759 
9.244855 2 17.76465 
9.4978 2 17.59369 
9.775999 2 17.46794 
10.07145 2 17.391 
12.81954 2 18.63841 
12.69537 2 18.23297 
12.50447 2 17.85434 
12.25233 2 17.51343 
11.9462 2 17.22002 
11.59489 2 16.98258 
11.2085 2 16.80792 
10.79815 2 16.70107 
10.37565 2 16.66511 
9.953149 2 16.70107 
9.542801 2 16.80792 
9.156413 2 16.98258 
8.8051 2 17.22002 
8.498969 2 17.51343 
8.246828 2 17.85434 
8.055928 2 18.23297 
7.931762 2 18.63841 
7.877903 2 19.05901 
7.895899 2 19.48266 
7.985233 2 19.89717 
8.143335 2 20.29062 
8.365657 2 20.6517 
8.645803 2 20.97 
8.975714 2 21.23639 
9.345898 2 21.44318 
9.745706 2 21.58445 
10.16364 2 21.65611 
10.37565 2 21.66511 
10.58767 2 21.65611 
11.0056 2 21.58445 
11.4054 2 21.44318 
11.77559 2 21.23639 
12.1055 2 20.97 
12.38564 2 20.6517 
12.60797 2 20.29062 
12.76607 2 19.89717 
12.8554 2 19.48266 
12.8734 2 19.05901 
3 0 1 2 
3 0 2 3 
3 3 2 4 
3 3 4 5 
3 5 4 6 
3 5 6 7 
3 7 6 8 
3 7 8 9 
3 9 8 10 
3 9 10 11 
3 11 10 12 
3 11 12 13 
3 13 12 14 
3 13 14 15 
3 15 14 16 
3 15 16 17 
3 17 16 18 
3 17 18 19 
3 19 18 20 
3 19 20 21 
3 21 20 22 
3 21 22 23 
3 23 22 24 
3 23 24 25 
3 25 24 26 
3 25 26 27 
3 27 26 28 
3 27 28 29 
3 29 28 30 
3 29 30 31 
3 31 30 32 
3 31 32 33 
3 33 32 34 
3 33 34 35 
3 36 37 38 
3 39 40 36 
3 41 42 43 
3 37 44 38 
3 38 44 45 
3 38 45 46 
3 39 47 48 
3 46 49 38 
3 38 49 50 
3 38 50 51 
3 51 52 38 
3 38 52 53 
3 38 53 54 
3 54 53 55 
3 54 55 56 
3 57 58 59 
3 48 60 39 
3 39 60 61 
3 39 61 40 
3 62 63 39 
3 64 65 66 
3 66 65 67 
3 66 67 68 
3 68 67 69 
3 68 69 70 
3 71 72 39 
3 39 72 73 
3 39 73 74 
3 63 75 39 
3 39 75 76 
3 39 76 77 
3 77 78 39 
3 39 78 79 
3 39 79 80 
3 81 82 83 
3 83 82 84 
3 74 85 39 
3 39 85 86 
3 39 86 47 
3 36 38 39 
3 39 38 87 
3 39 87 62 
3 80 88 39 
3 39 88 89 
3 39 89 90 
3 91 92 93 
3 93 92 94 
3 90 95 39 
3 39 95 94 
3 39 94 96 
3 96 94 92 
3 97 98 0 
3 84 59 83 
3 83 59 58 
3 83 58 99 
3 99 58 0 
3 83 100 81 
3 81 100 101 
3 81 101 102 
3 102 101 103 
3 102 103 104 
3 104 103 105 
3 104 105 106 
3 106 105 107 
3 106 107 64 
3 64 107 108 
3 64 108 65 
3 41 43 109 
3 109 43 110 
3 109 110 111 
3 112 113 35 
3 110 114 111 
3 111 114 115 
3 111 115 116 
3 116 115 117 
3 116 117 118 
3 118 117 119 
3 118 119 120 
3 120 119 121 
3 120 121 59 
3 59 121 122 
3 59 122 57 
3 0 123 124 
3 98 125 0 
3 0 125 126 
3 0 126 99 
3 124 127 0 
3 0 127 128 
3 0 128 97 
3 129 130 131 
3 131 132 129 
3 129 132 133 
3 129 133 134 
3 134 135 129 
3 129 135 136 
3 129 136 137 
3 137 136 138 
3 137 138 71 
3 71 138 139 
3 71 139 72 
3 55 138 56 
3 56 138 136 
3 56 136 35 
3 35 136 140 
3 35 140 112 
3 141 142 0 
3 0 142 143 
3 0 143 144 
3 145 146 123 
3 147 148 149 
3 150 31 113 
3 113 31 33 
3 113 33 35 
3 141 0 151 
3 151 0 3 
3 151 3 152 
3 152 3 5 
3 152 5 153 
3 153 5 7 
3 153 7 154 
3 154 7 9 
3 154 9 155 
3 155 9 11 
3 155 11 156 
3 156 11 13 
3 156 13 157 
3 157 13 15 
3 157 15 158 
3 158 15 17 
3 158 17 159 
3 159 17 19 
3 159 19 160 
3 160 19 21 
3 160 21 161 
3 161 21 23 
3 161 23 162 
3 162 23 25 
3 162 25 163 
3 163 25 27 
3 163 27 150 
3 150 27 29 
3 150 29 31 
3 149 164 165 
3 165 164 166 
3 165 166 167 
3 167 166 168 
3 167 168 169 
3 169 168 123 
3 169 123 170 
3 170 123 146 
3 130 129 149 
3 149 129 171 
3 149 171 147 
3 148 172 149 
3 149 172 173 
3 149 173 164 
3 144 174 0 
3 0 174 175 
3 0 175 123 
3 123 175 176 
3 123 176 145 
3 177 178 179 
3 179 180 181 
3 182 183 184 
3 185 186 187 
3 187 188 189 
3 189 188 190 
3 189 190 179 
3 179 190 191 
3 179 191 177 
3 178 192 179 
3 179 192 193 
3 179 193 180 
3 181 194 179 
3 179 194 195 
3 179 195 196 
3 195 197 196 
3 196 197 198 
3 196 198 199 
3 199 200 196 
3 196 200 201 
3 196 201 202 
3 203 204 205 
3 205 204 206 
3 205 206 207 
3 207 206 208 
3 207 208 209 
3 184 183 210 
3 210 183 211 
3 210 211 212 
3 212 211 213 
3 212 213 203 
3 203 213 214 
3 203 214 204 
3 187 186 215 
3 215 186 216 
3 215 216 217 
3 217 216 196 
3 217 196 218 
3 182 184 219 
3 219 184 220 
3 219 220 221 
3 221 220 222 
3 221 222 223 
3 224 225 226 
3 226 225 227 
3 226 227 228 
3 228 227 229 
3 228 229 230 
3 230 229 231 
3 230 231 232 
3 232 231 233 
3 232 233 234 
3 202 235 196 
3 196 235 236 
3 196 236 218 
3 237 238 239 
3 239 238 240 
3 239 240 241 
3 189 242 187 
3 187 242 34 
3 187 34 185 
3 185 34 32 
3 185 32 30 
3 30 28 185 
3 185 28 26 
3 185 26 24 
3 243 196 244 
3 244 196 245 
3 243 246 196 
3 196 246 247 
3 196 247 248 
3 249 250 196 
3 196 250 251 
3 196 251 252 
3 253 209 254 
3 254 209 208 
3 254 208 255 
3 255 208 239 
3 255 239 256 
3 256 239 241 
3 24 22 185 
3 185 22 20 
3 185 20 18 
3 196 257 245 
3 245 257 258 
3 245 258 259 
3 259 258 260 
3 248 261 196 
3 196 261 262 
3 196 262 249 
3 233 263 234 
3 234 263 264 
3 234 264 265 
3 265 264 266 
3 265 266 267 
3 267 266 268 
3 267 268 269 
3 252 270 196 
3 196 270 271 
3 196 271 179 
3 18 272 273 
3 226 209 224 
3 224 209 253 
3 224 253 1 
3 1 253 274 
3 1 274 2 
3 2 274 275 
3 2 275 4 
3 4 275 276 
3 4 276 6 
3 6 276 277 
3 6 277 8 
3 8 277 278 
3 8 278 10 
3 10 278 279 
3 10 279 12 
3 12 279 280 
3 12 280 14 
3 14 280 281 
3 14 281 16 
3 16 281 282 
3 16 282 18 
3 18 282 283 
3 18 283 272 
3 273 284 18 
3 18 284 285 
3 18 285 185 
3 185 285 286 
3 286 287 185 
3 185 287 288 
3 185 288 289 
3 237 239 290 
3 290 239 291 
3 290 291 292 
3 292 293 290 
3 290 293 294 
3 290 294 295 
3 295 296 290 
3 290 296 297 
3 290 297 298 
3 298 297 299 
3 298 299 300 
3 300 299 301 
3 300 301 302 
3 302 301 303 
3 302 303 304 
3 304 303 305 
3 304 305 306 
3 306 305 307 
3 306 307 308 
3 308 307 309 
3 308 309 310 
3 310 309 311 
3 310 311 312 
3 312 311 313 
3 312 313 314 
3 314 313 315 
3 314 315 316 
3 316 315 185 
3 316 185 317 
3 317 185 289 
3 137 71 318 
3 318 71 319 
3 129 137 185 
3 185 137 186 
3 56 35 242 
3 242 35 34 
3 54 56 320 
3 320 56 321 
3 38 54 322 
3 322 54 320 
3 38 179 271 
3 38 271 87 
3 87 271 270 
3 87 270 62 
3 62 270 252 
3 62 252 63 
3 63 252 251 
3 63 251 75 
3 75 251 250 
3 75 250 76 
3 76 250 249 
3 76 249 77 
3 77 249 262 
3 77 262 78 
3 78 262 261 
3 78 261 79 
3 79 261 248 
3 79 248 80 
3 80 248 247 
3 80 247 88 
3 88 247 246 
3 88 246 89 
3 89 246 243 
3 89 243 90 
3 90 243 244 
3 90 244 95 
3 95 244 245 
3 95 245 94 
3 94 245 259 
3 94 259 93 
3 93 259 260 
3 93 260 91 
3 91 260 258 
3 91 258 92 
3 92 258 257 
3 92 257 96 
3 96 257 196 
3 96 196 39 
3 71 39 319 
3 319 39 323 
3 55 53 324 
3 324 53 325 
3 72 217 73 
3 73 217 218 
3 73 218 74 
3 74 218 236 
3 74 236 85 
3 85 236 235 
3 85 235 86 
3 86 235 202 
3 86 202 47 
3 47 202 201 
3 47 201 48 
3 48 201 200 
3 48 200 60 
3 60 200 199 
3 60 199 61 
3 61 199 198 
3 61 198 40 
3 40 198 197 
3 40 197 36 
3 36 197 195 
3 36 195 37 
3 37 195 194 
3 37 194 44 
3 44 194 181 
3 44 181 45 
3 45 181 180 
3 45 180 46 
3 46 180 193 
3 46 193 49 
3 49 193 192 
3 49 192 50 
3 50 192 178 
3 50 178 51 
3 51 178 177 
3 51 177 52 
3 52 177 191 
3 52 191 53 
3 53 191 190 
3 72 139 326 
3 326 139 327 
3 139 138 215 
3 215 138 187 
3 138 55 328 
3 328 55 324 
3 129 185 315 
3 129 315 171 
3 171 315 313 
3 171 313 147 
3 147 313 311 
3 147 311 148 
3 148 311 309 
3 148 309 172 
3 172 309 307 
3 172 307 173 
3 173 307 305 
3 173 305 164 
3 164 305 303 
3 164 303 166 
3 166 303 301 
3 166 301 168 
3 168 301 299 
3 168 299 123 
3 123 299 297 
3 123 297 124 
3 124 297 296 
3 124 296 127 
3 127 296 295 
3 127 295 128 
3 128 295 294 
3 128 294 97 
3 97 294 293 
3 97 293 98 
3 98 293 292 
3 98 292 125 
3 125 292 291 
3 125 291 126 
3 126 291 239 
3 126 239 99 
3 329 253 330 
3 330 253 254 
3 330 254 331 
3 331 254 255 
3 331 255 332 
3 332 255 256 
3 332 256 333 
3 333 256 241 
3 333 241 334 
3 334 241 240 
3 334 240 335 
3 335 240 238 
3 335 238 336 
3 336 238 237 
3 336 237 337 
3 337 237 290 
3 337 290 338 
3 338 290 298 
3 338 298 339 
3 339 298 300 
3 339 300 340 
3 340 300 302 
3 340 302 341 
3 341 302 304 
3 341 304 342 
3 342 304 306 
3 342 306 343 
3 343 306 308 
3 343 308 344 
3 344 308 310 
3 344 310 345 
3 345 310 312 
3 345 312 346 
3 346 312 314 
3 346 314 347 
3 347 314 316 
3 347 316 348 
3 348 316 317 
3 348 317 349 
3 349 317 289 
3 349 289 350 
3 350 289 288 
3 350 288 351 
3 351 288 287 
3 351 287 352 
3 352 287 286 
3 352 286 353 
3 353 286 285 
3 353 285 354 
3 354 285 284 
3 354 284 355 
3 355 284 273 
3 355 273 356 
3 356 273 272 
3 356 272 357 
3 357 272 283 
3 357 283 358 
3 358 283 282 
3 358 282 359 
3 359 282 281 
3 359 281 360 
3 360 281 280 
3 360 280 361 
3 361 280 279 
3 361 279 362 
3 362 279 278 
3 362 278 363 
3 363 278 277 
3 363 277 364 
3 364 277 276 
3 364 276 365 
3 365 276 275 
3 365 275 366 
3 366 275 274 
3 366 274 329 
3 329 274 253 
3 337 367 336 
3 336 367 368 
3 336 368 335 
3 335 368 369 
3 335 369 334 
3 334 369 370 
3 334 370 333 
3 333 370 371 
3 333 371 332 
3 332 371 372 
3 332 372 331 
3 331 372 373 
3 331 373 330 
3 330 373 374 
3 330 374 329 
3 329 374 375 
3 329 375 366 
3 366 375 376 
3 366 376 365 
3 365 376 377 
3 365 377 364 
3 364 377 378 
3 364 378 363 
3 363 378 379 
3 363 379 362 
3 362 379 380 
3 362 380 361 
3 361 380 381 
3 361 381 360 
3 360 381 382 
3 360 382 359 
3 359 382 383 
3 359 383 358 
3 358 383 384 
3 358 384 357 
3 357 384 385 
3 357 385 356 
3 356 385 386 
3 356 386 355 
3 355 386 387 
3 355 387 354 
3 354 387 388 
3 354 388 353 
3 353 388 389 
3 353 389 352 
3 352 389 390 
3 352 390 351 
3 351 390 391 
3 351 391 350 
3 350 391 392 
3 350 392 349 
3 349 392 393 
3 349 393 348 
3 348 393 394 
3 348 394 347 
3 347 394 395 
3 347 395 346 
3 346 395 396 
3 346 396 345 
3 345 396 397 
3 345 397 344 
3 344 397 398 
3 344 398 343 
3 343 398 399 
3 343 399 342 
3 342 399 400 
3 342 400 341 
3 341 400 401 
3 341 401 340 
3 340 401 402 
3 340 402 339 
3 339 402 403 
3 339 403 338 
3 338 403 404 
3 338 404 337 
3 337 404 367 
3 395 394 136 
3 136 394 140 
3 394 393 140 
3 140 393 392 
3 140 392 112 
3 112 392 391 
3 112 391 113 
3 113 391 390 
3 113 390 150 
3 150 390 389 
3 150 389 163 
3 163 389 388 
3 163 388 162 
3 162 388 387 
3 162 387 161 
3 161 387 386 
3 161 386 160 
3 160 386 385 
3 160 385 159 
3 159 385 384 
3 159 384 158 
3 158 384 383 
3 158 383 157 
3 157 383 382 
3 157 382 156 
3 156 382 381 
3 156 381 155 
3 155 381 380 
3 155 380 154 
3 154 380 379 
3 154 379 153 
3 153 379 378 
3 153 378 152 
3 152 378 377 
3 152 377 151 
3 151 377 376 
3 151 376 141 
3 141 376 375 
3 141 375 142 
3 142 375 374 
3 142 374 143 
3 143 374 373 
3 143 373 144 
3 144 373 372 
3 144 372 174 
3 174 372 371 
3 174 371 175 
3 175 371 370 
3 175 370 176 
3 176 370 369 
3 176 369 145 
3 145 369 368 
3 145 368 146 
3 146 368 367 
3 146 367 170 
3 170 367 404 
3 170 404 169 
3 169 404 403 
3 169 403 167 
3 167 403 402 
3 167 402 165 
3 165 402 401 
3 165 401 149 
3 149 401 400 
3 149 400 130 
3 130 400 399 
3 130 399 131 
3 131 399 398 
3 131 398 132 
3 132 398 397 
3 132 397 133 
3 133 397 396 
3 133 396 134 
3 134 396 395 
3 134 395 135 
3 135 395 136 
3 0 58 1 
3 1 58 224 
3 83 99 208 
3 208 99 239 
3 42 269 268 
3 42 268 43 
3 43 268 266 
3 43 266 110 
3 110 266 264 
3 110 264 114 
3 114 264 263 
3 114 263 115 
3 115 263 233 
3 115 233 117 
3 117 233 231 
3 117 231 119 
3 119 231 229 
3 119 229 121 
3 121 229 227 
3 121 227 122 
3 122 227 225 
3 122 225 57 
3 57 225 224 
3 57 224 58 
3 70 223 68 
3 68 223 222 
3 68 222 66 
3 66 222 220 
3 66 220 64 
3 64 220 184 
3 64 184 106 
3 106 184 210 
3 106 210 104 
3 104 210 212 
3 104 212 102 
3 102 212 203 
3 102 203 81 
3 81 203 205 
3 81 205 82 
3 82 205 207 
3 82 207 84 
3 84 207 209 
3 84 209 59 
3 59 209 226 
3 59 226 120 
3 120 226 228 
3 120 228 118 
3 118 228 230 
3 118 230 116 
3 116 230 232 
3 116 232 111 
3 111 232 234 
3 111 234 109 
3 109 234 265 
3 109 265 41 
3 41 265 267 
3 41 267 42 
3 42 267 269 
3 83 208 206 
3 83 206 100 
3 100 206 204 
3 100 204 101 
3 101 204 214 
3 101 214 103 
3 103 214 213 
3 103 213 105 
3 105 213 211 
3 105 211 107 
3 107 211 183 
3 107 183 108 
3 108 183 182 
3 108 182 65 
3 65 182 219 
3 65 219 67 
3 67 219 221 
3 67 221 69 
3 69 221 223 
3 69 223 70 
